<svg width="239" height="300" viewBox="0 0 239 300" fill="none" xmlns="http://www.w3.org/2000/svg">
<rect x="12" y="12" width="215" height="276" rx="15" fill="#E35656"/>
<path d="M12 49.5C12 41.4919 18.4919 35 26.5 35V35C34.5081 35 41 41.4919 41 49.5V288H27C18.7157 288 12 281.284 12 273V49.5Z" fill="#FA6767"/>
<rect x="22" y="15" width="195" height="264" rx="15" fill="white"/>
<rect x="12" y="12" width="215" height="253" rx="15" fill="#FA6767"/>
<path d="M58.0078 104.19L97.0078 121.363V110.145L70.6662 99.5639V99.0653L97.0078 88.4844V77.2663L58.0078 94.4396V104.19ZM133.432 62.6136H123.266L104.985 130.531H115.151L133.432 62.6136ZM180.416 104.19V94.4396L141.416 77.2663V88.4844L167.758 99.0653V99.5639L141.416 110.145V121.363L180.416 104.19Z" fill="white"/>
</svg>
